<svg width="25" height="24" viewBox="0 0 25 24" fill="none" xmlns="http://www.w3.org/2000/svg">
<g clip-path="url(#clip0_624_2676)">
<path d="M17.6749 0.000145537C16.3136 0.0920204 14.8568 0.90202 13.9549 1.99515C13.1655 2.95702 12.5036 4.3689 12.7549 5.83515C12.5299 5.76577 12.3255 5.75827 12.0799 5.67015C11.4105 5.43202 10.6455 5.17515 9.69488 5.17515C7.80676 5.17515 5.87363 6.29827 4.65488 8.17515C2.88113 10.9014 3.23738 15.6995 5.92988 19.8001C6.40426 20.5201 6.95738 21.3058 7.63988 21.9301C8.32238 22.5545 9.14738 23.0308 10.1149 23.0401C10.9418 23.0495 11.5174 22.7739 12.0349 22.5451C12.5524 22.3164 13.0343 22.1139 13.9399 22.1101C13.9455 22.1101 13.9493 22.1101 13.9549 22.1101C14.8568 22.1026 15.3236 22.3014 15.8299 22.5301C16.3361 22.7589 16.9061 23.0476 17.7349 23.0401C18.7211 23.0326 19.5593 22.4926 20.2549 21.8251C20.9505 21.1576 21.5224 20.3383 21.9949 19.6201C22.6718 18.5889 22.9436 18.0264 23.4649 16.8751C23.5193 16.7551 23.5211 16.6164 23.4686 16.4945C23.418 16.3726 23.3186 16.277 23.1949 16.2301C21.4886 15.5851 20.5155 14.0758 20.3749 12.4801C20.2343 10.8845 20.9093 9.24202 22.6099 8.31015C22.7355 8.24265 22.8236 8.12452 22.8536 7.98577C22.8818 7.84702 22.848 7.70077 22.7599 7.59015C21.5393 6.07327 19.8218 5.17515 18.1399 5.17515C17.0674 5.17515 16.2799 5.42827 15.6349 5.67015C15.528 5.7114 15.4493 5.70765 15.3499 5.74515C16.0043 5.40015 16.5818 4.92202 17.0149 4.36515C17.8024 3.35452 18.4099 1.9164 18.1849 0.405146C18.1474 0.157646 17.9243 -0.0186045 17.6749 0.000145537ZM17.1649 1.14015C17.133 2.10952 16.8011 3.05827 16.2499 3.76515C15.6724 4.50765 14.7011 5.0214 13.7599 5.17515C13.7768 4.24327 14.1443 3.27765 14.7049 2.59515C15.2936 1.88265 16.2686 1.3689 17.1649 1.14015ZM9.69488 6.13515C10.1149 6.13515 11.0899 6.33577 11.7499 6.57015C12.4099 6.80452 13.1055 7.08015 13.9249 7.08015C14.7255 7.08015 15.3593 6.80265 15.9799 6.57015C16.6005 6.33765 17.2193 6.13515 18.1399 6.13515C19.3418 6.13515 20.6411 6.75952 21.6649 7.84515C20.0261 9.00202 19.2593 10.8058 19.4149 12.5551C19.5705 14.3233 20.6355 16.0014 22.3849 16.8751C22.3824 16.8806 22.3799 16.886 22.3774 16.8915C22.0028 17.7074 21.7531 18.2514 21.1999 19.0951C20.7405 19.7945 20.1949 20.5595 19.5949 21.1351C18.9949 21.7108 18.3593 22.0745 17.7199 22.0801C17.103 22.0858 16.7524 21.902 16.2199 21.6601C15.6874 21.4183 14.9993 21.1408 13.9399 21.1501C12.8824 21.1558 12.1849 21.422 11.6449 21.6601C11.1049 21.8983 10.7505 22.0858 10.1299 22.0801C9.47363 22.0745 8.86426 21.7558 8.28488 21.2251C7.70551 20.6945 7.18238 19.9708 6.72488 19.2751C4.20488 15.4351 4.00238 10.9239 5.44988 8.70015C6.51113 7.06702 9.27488 6.13515 9.69488 6.13515Z" fill="black"/>
<path d="M9.69488 6.13515C10.1149 6.13515 11.0899 6.33577 11.7499 6.57015C12.4099 6.80452 13.1055 7.08015 13.9249 7.08015C14.7255 7.08015 15.3593 6.80265 15.9799 6.57015C16.6005 6.33765 17.2193 6.13515 18.1399 6.13515C19.3418 6.13515 20.6411 6.75952 21.6649 7.84515C20.0261 9.00202 19.2593 10.8058 19.4149 12.5551C19.5705 14.3233 20.6355 16.0014 22.3849 16.8751L22.3774 16.8915C22.0028 17.7074 21.7531 18.2514 21.1999 19.0951C20.7405 19.7945 20.1949 20.5595 19.5949 21.1351C18.9949 21.7108 18.3593 22.0745 17.7199 22.0801C17.103 22.0858 16.7524 21.902 16.2199 21.6601C15.6874 21.4183 14.9993 21.1408 13.9399 21.1501C12.8824 21.1558 12.1849 21.422 11.6449 21.6601C11.1049 21.8983 10.7505 22.0858 10.1299 22.0801C9.47363 22.0745 8.86426 21.7558 8.28488 21.2251C7.70551 20.6945 7.18238 19.9708 6.72488 19.2751C4.20488 15.4351 4.00238 10.9239 5.44988 8.70015C6.51113 7.06702 9.27488 6.13515 9.69488 6.13515Z" fill="black"/>
<path d="M17.1649 1.14015C17.133 2.10952 16.8011 3.05827 16.2499 3.76515C15.6724 4.50765 14.7011 5.0214 13.7599 5.17515C13.7768 4.24327 14.1443 3.27765 14.7049 2.59515C15.2936 1.88265 16.2686 1.3689 17.1649 1.14015Z" fill="black"/>
</g>
<defs>
<clipPath id="clip0_624_2676">
<rect width="24" height="24" fill="white" transform="translate(0.188721 0.00012207)"/>
</clipPath>
</defs>
</svg>
